# xmcd
#
# Track frame offsets: 
#        150
#        3840
#        22617
#        42576
#        57080
#        75777
#        90000
#        103527
#        129591
#        143179
#        163006
#        183664
#        202397
#        216358
#        233390
#        246872
#        265671
#        286341
#        323644
#
# Disc length: 4533 seconds
#
# Revision: 0
# Processed by: cddbd v1.5.1PL2 Copyright (c) Steve Scherf et al.
# Submitted via: ExactAudioCopy v0.95b2
#
DISCID=f211b313
DTITLE=Тату - Люди
DYEAR=1900
DGENRE=Pop
TTITLE0=Люди инвалиды (intro)
TTITLE1=Новая модель
TTITLE2=Обезъянка ноль
TTITLE3=Loves Me Not
TTITLE4=Космос
TTITLE5=Ты согласна
TTITLE6=Ничья
TTITLE7=Вся моя любовь
TTITLE8=All About Us
TTITLE9=Что не хватает
TTITLE10=Люди инвалиды
TTITLE11=Cosmos (Outer Space)
TTITLE12=Friend or Foe
TTITLE13=Craving (I only want what I can't have)
TTITLE14=We Shout
TTITLE15=Perfect enemy
TTITLE16=Dangerous and moving
TTITLE17=All About Us (Daves Acid Funk Dub)
TTITLE18=Люди Инвалиды (Globass Remix)
EXTD=
EXTT0=
EXTT1=
EXTT2=
EXTT3=
EXTT4=
EXTT5=
EXTT6=
EXTT7=
EXTT8=
EXTT9=
EXTT10=
EXTT11=
EXTT12=
EXTT13=
EXTT14=
EXTT15=
EXTT16=
EXTT17=
EXTT18=
PLAYORDER=
